<svg width="404" height="349" viewBox="0 0 404 349" fill="none" xmlns="http://www.w3.org/2000/svg">
<path d="M32.5572 288.351C28.1266 284.46 25.2909 279.63 24.4781 274.127C24.0539 271.255 21.5379 272.656 20.7485 270.969C18.8571 266.927 15.5999 263.192 14.944 259.012C14.4377 255.785 12.1265 255.311 10.954 253.417C7.4205 247.71 4.19303 241.814 0.653617 235.7C-0.112935 231.475 1.83001 228.296 3.65095 225.128C15.7735 204.044 27.9544 182.992 40.1146 161.929C70.0155 110.137 99.9033 58.3375 129.863 6.57939C131.285 4.1233 132.024 0.209715 135.631 0.456867C138.74 0.669963 139.513 4.26755 140.853 6.66666C157.427 36.3239 174.765 65.5373 191.917 94.8589C194.189 98.7435 196.193 102.77 198.42 106.679C199.876 109.234 200.27 111.726 198.553 114.636C177.9 149.643 157.851 185.002 142.603 211.203C156.783 186.646 176.125 153.141 195.469 119.638C196.052 118.628 196.579 117.579 197.245 116.625C198.458 114.885 199.7 112.322 202.201 113.771C204.465 115.082 202.782 117.289 201.85 119.446C182.862 152.223 164.172 184.669 145.44 217.09C144.774 218.242 144.034 219.36 143.461 220.557C142.632 222.294 140.513 224.014 141.69 225.925C142.893 227.879 145.363 226.527 147.275 226.659C162.392 227.706 177.533 226.882 192.648 226.851C208.923 226.817 225.221 227.788 241.491 226.571C243.825 226.397 246.147 226.529 248.828 226.904C250.905 227.126 251.777 229.58 254.183 228.585C254.712 228.467 254.93 228.447 255.465 228.514C257.583 230.672 258.937 229.604 260.51 227.75C262.36 226.711 263.943 226.955 265.963 227.43C268.982 226.941 269.306 224.437 270.319 222.692C290.078 188.654 309.705 154.54 329.446 120.492C331.131 117.586 332.26 113.887 337.025 113.586C340.934 118.74 345.084 123.491 345.685 130.019C345.712 130.308 345.911 130.678 346.146 130.835C352.01 134.745 354.707 140.448 355.495 147.243C360.95 148.77 360.804 154.32 363.092 158.058C369.986 169.319 376.698 180.679 383.091 192.257C388.754 202.512 394.584 212.753 400.792 222.717C404.13 228.075 404.111 232.49 400.949 237.907C380.553 272.86 360.352 307.927 340.227 343.037C337.949 347.011 335.47 348.831 330.706 347.84C327.712 347.218 324.375 348.342 321.336 347.831C313.001 346.429 304.668 347.985 296.381 347.964C286.32 347.939 276.135 347.776 266.006 348.251C260.346 348.517 254.189 349.602 248.503 347.962C241.575 345.963 234.919 349.546 228.104 348.293C221.333 347.048 214.455 349.688 207.329 347.761C201.123 345.005 195.166 345.966 188.906 347.337C188.047 347.553 187.482 347.597 186.647 347.51C183.446 346.75 180.493 344.529 177.278 347.596C175.25 347.525 173.421 348.559 171.923 346.69C169.851 344.106 169.326 348.055 167.551 347.896C164.062 347.583 160.53 347.75 156.691 347.539C154.475 344.209 151.435 345.595 148.455 345.459C145.076 344.825 142.114 344.456 140.042 348.032C139.089 347.787 138.438 347.413 137.462 346.854C134.916 345.358 132.699 344.22 130.248 346.956C126.249 347.795 122.459 348.431 119.004 346.515C117.036 345.424 116.103 347.739 114.161 347.184C111.32 346.459 108.67 344.828 106.436 348.243C102.899 347.261 99.5937 346.701 95.82 346.867C90.9717 347.705 86.7646 345.596 82.3431 345.573C80.8874 345.566 79.3267 344.875 77.944 345.25C70.4816 347.273 65.5165 342.918 60.3126 338.337C60.1522 338.005 60.3991 337.571 60.5229 337.355C60.3983 331.777 54.4874 321.327 50.4007 319.548C49.681 319.254 49.2979 319.031 48.6273 318.643C50.6507 311.573 46.016 307.379 42.0561 303.116C40.7459 301.705 40.0475 300.491 39.5643 298.621C38.5105 294.545 37.2323 290.363 32.5572 288.351Z" fill="#1EFF1E"/>
</svg>
